<svg width="70" height="70" viewBox="0 0 170 140" fill="none" xmlns="http://www.w3.org/2000/svg">
<rect width="150" height="150" fill="#1e1e1e01"/>
<g clip-path="url(#clip0_0_1)">
<path d="M80.8458 80.303L77.1028 77.4931C71.5901 73.3548 64.7053 73.2182 61.7252 77.188L33.396 114.925C30.4159 118.895 32.4689 125.468 37.9815 129.606L41.7246 132.416C47.2372 136.555 54.122 136.691 57.1021 132.721L85.4313 94.9841C88.4115 91.0143 86.3585 84.4413 80.8458 80.303Z" fill="#991834"/>
<path d="M103.136 45.0882C124.449 61.4391 113.075 76.9577 99.8938 94.1051C86.7123 111.252 77.0643 123.803 55.4014 107.184C36.4908 92.6764 46.521 78.2734 59.7024 61.1263C72.8839 43.9791 84.225 30.5808 103.136 45.0882Z" fill="#7A1A2A"/>
<path d="M87.1982 13.979L58.5495 52.916C53.2755 60.0841 60.3613 74.2544 74.3763 84.5661C88.3912 94.8779 104.028 97.4263 109.302 90.2582L137.951 51.3212C143.225 44.1531 136.139 29.9829 122.124 19.6711C108.109 9.35934 92.4723 6.8109 87.1982 13.979Z" fill="url(#paint0_linear_0_1)"/>
<path d="M104.483 44.3886C120.057 55.1273 137.318 57.5741 143.036 49.8537C148.754 42.1332 140.765 27.1692 125.191 16.4305C109.617 5.69179 92.3557 3.24501 86.6373 10.9654C80.9189 18.6859 88.9085 33.65 104.483 44.3886Z" fill="url(#paint1_radial_0_1)"/>
<path d="M93.3851 13.9514C90.9633 17.2383 97.4017 26.0182 107.766 33.5619C118.13 41.1055 128.495 44.5563 130.916 41.2695C133.338 37.9826 126.9 29.2027 116.536 21.659C106.172 14.1154 95.8069 10.6645 93.3851 13.9514Z" fill="url(#paint2_radial_0_1)"/>
<path d="M108.48 39.9577C122.552 49.274 137.138 52.3294 141.058 46.782C144.978 41.2346 136.748 29.1852 122.676 19.8688C108.604 10.5524 94.0184 7.49705 90.0982 13.0444C86.178 18.5918 94.4077 30.6413 108.48 39.9577Z" stroke="#99014A" stroke-width="2"/>
<path d="M25 44L28 53H36L30 58L32 67L25 62L18 67L20 58L14 53H22L25 44Z" fill="#EB2A48"/>
<path d="M54 28L55 32H59L56 34L57 38L54 36L51 38L52 34L49 32H53L54 28Z" fill="#AA29A8"/>
<path d="M110 109L113 114H119L114 118L116 124L110 120L104 124L105 118L100 114H106L110 109Z" fill="#E33827"/>
</g>
<defs>
<linearGradient id="paint0_linear_0_1" x1="49" y1="65.895" x2="148.224" y2="62.9788" gradientUnits="userSpaceOnUse">
<stop stop-color="#FD5C83"/>
<stop offset="0.5" stop-color="#D4232D"/>
<stop offset="1" stop-color="#86011E"/>
</linearGradient>
<radialGradient id="paint1_radial_0_1" cx="0" cy="0" r="1" gradientTransform="matrix(2819.93 1944.41 -1035.41 1397.91 1881.51 3339.31)" gradientUnits="userSpaceOnUse">
<stop stop-color="#FFEFFF"/>
<stop offset="0.7" stop-color="#BB3BA9"/>
<stop offset="1" stop-color="#660051"/>
</radialGradient>
<radialGradient id="paint2_radial_0_1" cx="0" cy="0" r="1" gradientTransform="matrix(-438.508 595.141 -1876.57 -1365.9 -1716.76 -581.292)" gradientUnits="userSpaceOnUse">
<stop stop-color="#FF9BF2" stop-opacity="0.8"/>
<stop offset="1" stop-color="#D40576" stop-opacity="0"/>
</radialGradient>
<clipPath id="clip0_0_1">
<rect width="150" height="150" fill="white"/>
</clipPath>
</defs>
</svg>
